<svg width="56" height="56" viewBox="0 0 56 56" fill="none" xmlns="http://www.w3.org/2000/svg">
<path d="M28 0C12.536 0 0 12.536 0 28C0 43.464 12.536 56 28 56C43.464 56 56 43.464 56 28C56 12.536 43.464 0 28 0ZM16.9901 11.3099C20.257 9.15287 24.0853 8.002 28 8C31.9204 7.99587 35.7544 9.151 39.02 11.32L11.32 39.02C5.23387 29.8022 7.77238 17.3961 16.9901 11.3099ZM39.0099 44.6901C35.743 46.8471 31.9149 47.998 28 48C24.0796 48.0041 20.2456 46.849 16.98 44.68L44.68 16.98C50.7661 26.1976 48.2276 38.6039 39.0099 44.6901Z" fill="#C782F2"/>
</svg>
