<svg width="201" height="35" viewBox="0 0 201 35" fill="none" xmlns="http://www.w3.org/2000/svg">
<path d="M23.7325 11.2193C25.2323 9.71947 27.664 9.71947 29.1638 11.2193C30.6636 12.7191 30.6636 15.1507 29.1638 16.6505L25.0903 20.7239L25.5147 21.1482C26.2177 21.8513 26.2177 22.9911 25.5147 23.6941C24.8116 24.3972 23.6718 24.3972 22.9688 23.6941L22.5444 23.2698L17.3678 28.4465C14.238 31.5763 10.4939 30.9075 10.4939 30.9075C10.0696 30.8226 9.5604 30.3134 9.47554 29.8891C9.47554 29.8891 8.80677 26.145 11.9366 23.0152L17.1132 17.8386L16.6889 17.4143C15.9859 16.7112 15.9859 15.5714 16.6889 14.8684C17.3919 14.1653 18.5318 14.1653 19.2348 14.8684L19.6591 15.2927L23.7325 11.2193Z" fill="#FF30C5"/>
<g filter="url(#filter0_bdii_8376_78930)">
<path d="M26.8116 8.18838C25.3118 6.68859 22.8801 6.68859 21.3803 8.18838L17.3069 12.2618L16.8826 11.8375C16.1796 11.1345 15.0397 11.1345 14.3367 11.8375C13.6337 12.5405 13.6337 13.6804 14.3367 14.3834L20.6166 20.6632C21.3196 21.3663 22.4594 21.3663 23.1625 20.6632C23.8655 19.9602 23.8655 18.8204 23.1625 18.1174L22.7382 17.693L26.8116 13.6196C28.3114 12.1198 28.3114 9.68818 26.8116 8.18838Z" fill="white" fill-opacity="0.55"/>
<path d="M14.7611 14.8076L9.58446 19.9843C6.45466 23.1141 7.12343 26.8582 7.12343 26.8582C7.20829 27.2825 7.71747 27.7917 8.14178 27.8765C8.14178 27.8765 11.8859 28.5453 15.0157 25.4155L20.1923 20.2389L14.7611 14.8076Z" fill="white" fill-opacity="0.3"/>
</g>
<path d="M42.384 25C41.9467 25 41.6107 24.8827 41.376 24.648C41.1413 24.4133 41.024 24.072 41.024 23.624V15.08C41.024 14.6427 41.152 14.296 41.408 14.04C41.6747 13.7733 42.032 13.64 42.48 13.64C42.9387 13.64 43.3013 13.7733 43.568 14.04C43.8347 14.296 43.968 14.6427 43.968 15.08V22.616H47.648C48.576 22.616 49.04 23.016 49.04 23.816C49.04 24.2213 48.9227 24.52 48.688 24.712C48.464 24.904 48.1173 25 47.648 25H42.384ZM51.6363 25.096C51.1883 25.096 50.8309 24.968 50.5643 24.712C50.3083 24.4453 50.1803 24.088 50.1803 23.64V15.08C50.1803 14.6427 50.3083 14.296 50.5643 14.04C50.8309 13.7733 51.1883 13.64 51.6363 13.64C52.0949 13.64 52.4576 13.7733 52.7243 14.04C52.9909 14.296 53.1243 14.6427 53.1243 15.08V23.64C53.1243 24.088 52.9909 24.4453 52.7243 24.712C52.4576 24.968 52.0949 25.096 51.6363 25.096ZM63.2606 14.408C63.378 14.152 63.5433 13.96 63.7566 13.832C63.97 13.704 64.2046 13.64 64.4606 13.64C64.8446 13.64 65.1913 13.7627 65.5006 14.008C65.81 14.2533 65.9646 14.5627 65.9646 14.936C65.9646 15.1173 65.9166 15.304 65.8206 15.496L61.5966 24.216C61.458 24.504 61.25 24.728 60.9726 24.888C60.6953 25.0373 60.3966 25.112 60.0766 25.112C59.7566 25.112 59.458 25.0373 59.1806 24.888C58.9033 24.728 58.6953 24.504 58.5566 24.216L54.3326 15.496C54.2473 15.3253 54.2046 15.1387 54.2046 14.936C54.2046 14.5733 54.3646 14.2693 54.6846 14.024C55.0046 13.768 55.362 13.64 55.7566 13.64C56.0126 13.64 56.2473 13.704 56.4606 13.832C56.6846 13.96 56.8553 14.152 56.9726 14.408L60.1246 21.224L63.2606 14.408ZM68.4153 25C67.9779 25 67.6419 24.8827 67.4073 24.648C67.1726 24.4133 67.0553 24.0773 67.0553 23.64V15.08C67.0553 14.6427 67.1726 14.3067 67.4073 14.072C67.6419 13.8373 67.9779 13.72 68.4153 13.72H73.9513C74.4099 13.72 74.7566 13.816 74.9913 14.008C75.2259 14.2 75.3433 14.4773 75.3433 14.84C75.3433 15.608 74.8793 15.992 73.9513 15.992H69.9193V18.136H73.6313C74.5593 18.136 75.0233 18.5147 75.0233 19.272C75.0233 19.6347 74.9059 19.912 74.6713 20.104C74.4366 20.296 74.0899 20.392 73.6313 20.392H69.9193V22.728H73.9513C74.8793 22.728 75.3433 23.112 75.3433 23.88C75.3433 24.2427 75.2259 24.52 74.9913 24.712C74.7566 24.904 74.4099 25 73.9513 25H68.4153ZM86.5243 25.144C85.3936 25.144 84.4016 24.9093 83.5483 24.44C82.7056 23.9707 82.0496 23.2987 81.5803 22.424C81.1216 21.5493 80.8923 20.5253 80.8923 19.352C80.8923 18.1893 81.1216 17.1707 81.5803 16.296C82.0496 15.4213 82.7056 14.7493 83.5483 14.28C84.4016 13.8107 85.3936 13.576 86.5243 13.576C87.8789 13.576 89.0683 13.9333 90.0923 14.648C90.2736 14.776 90.4016 14.9147 90.4763 15.064C90.5616 15.2133 90.6043 15.4053 90.6043 15.64C90.6043 15.9707 90.5083 16.2533 90.3163 16.488C90.1349 16.712 89.9109 16.824 89.6443 16.824C89.4843 16.824 89.3403 16.8027 89.2123 16.76C89.0843 16.7067 88.9349 16.6267 88.7643 16.52C88.3909 16.296 88.0389 16.136 87.7083 16.04C87.3776 15.944 87.0363 15.896 86.6843 15.896C85.7349 15.896 85.0256 16.184 84.5563 16.76C84.0976 17.3253 83.8683 18.1893 83.8683 19.352C83.8683 20.5253 84.0976 21.4 84.5563 21.976C85.0256 22.5413 85.7349 22.824 86.6843 22.824C87.0043 22.824 87.3136 22.776 87.6123 22.68C87.9109 22.5733 88.2949 22.4133 88.7643 22.2C88.9883 22.0827 89.1536 22.0027 89.2603 21.96C89.3669 21.9173 89.4949 21.896 89.6443 21.896C89.9109 21.896 90.1349 22.0133 90.3163 22.248C90.5083 22.472 90.6043 22.7493 90.6043 23.08C90.6043 23.304 90.5616 23.496 90.4763 23.656C90.4016 23.8053 90.2736 23.944 90.0923 24.072C89.0683 24.7867 87.8789 25.144 86.5243 25.144ZM97.134 25.144C95.982 25.144 94.9793 24.9093 94.126 24.44C93.2833 23.96 92.6327 23.288 92.174 22.424C91.7153 21.5493 91.486 20.5253 91.486 19.352C91.486 18.1787 91.7153 17.16 92.174 16.296C92.6327 15.4213 93.2833 14.7493 94.126 14.28C94.9793 13.8107 95.982 13.576 97.134 13.576C98.286 13.576 99.2833 13.8107 100.126 14.28C100.979 14.7493 101.63 15.4213 102.078 16.296C102.537 17.16 102.766 18.1787 102.766 19.352C102.766 20.5253 102.537 21.5493 102.078 22.424C101.619 23.288 100.963 23.96 100.11 24.44C99.2673 24.9093 98.2753 25.144 97.134 25.144ZM97.134 22.888C97.9873 22.888 98.654 22.5893 99.134 21.992C99.614 21.384 99.854 20.504 99.854 19.352C99.854 18.2 99.6087 17.3253 99.118 16.728C98.638 16.1307 97.9767 15.832 97.134 15.832C96.2807 15.832 95.614 16.1307 95.134 16.728C94.654 17.3147 94.414 18.1893 94.414 19.352C94.414 20.5147 94.654 21.3947 95.134 21.992C95.614 22.5893 96.2807 22.888 97.134 22.888ZM105.868 25C105.431 25 105.095 24.8827 104.86 24.648C104.626 24.4133 104.508 24.072 104.508 23.624V15.08C104.508 14.6427 104.636 14.296 104.892 14.04C105.159 13.7733 105.516 13.64 105.964 13.64C106.423 13.64 106.786 13.7733 107.052 14.04C107.319 14.296 107.452 14.6427 107.452 15.08V22.616H111.132C112.06 22.616 112.524 23.016 112.524 23.816C112.524 24.2213 112.407 24.52 112.172 24.712C111.948 24.904 111.602 25 111.132 25H105.868ZM118.368 25.144C117.216 25.144 116.214 24.9093 115.36 24.44C114.518 23.96 113.867 23.288 113.408 22.424C112.95 21.5493 112.72 20.5253 112.72 19.352C112.72 18.1787 112.95 17.16 113.408 16.296C113.867 15.4213 114.518 14.7493 115.36 14.28C116.214 13.8107 117.216 13.576 118.368 13.576C119.52 13.576 120.518 13.8107 121.36 14.28C122.214 14.7493 122.864 15.4213 123.312 16.296C123.771 17.16 124 18.1787 124 19.352C124 20.5253 123.771 21.5493 123.312 22.424C122.854 23.288 122.198 23.96 121.344 24.44C120.502 24.9093 119.51 25.144 118.368 25.144ZM118.368 22.888C119.222 22.888 119.888 22.5893 120.368 21.992C120.848 21.384 121.088 20.504 121.088 19.352C121.088 18.2 120.843 17.3253 120.352 16.728C119.872 16.1307 119.211 15.832 118.368 15.832C117.515 15.832 116.848 16.1307 116.368 16.728C115.888 17.3147 115.648 18.1893 115.648 19.352C115.648 20.5147 115.888 21.3947 116.368 21.992C116.848 22.5893 117.515 22.888 118.368 22.888ZM135.231 23.128C135.423 23.416 135.519 23.688 135.519 23.944C135.519 24.2853 135.375 24.5733 135.087 24.808C134.809 25.032 134.484 25.144 134.111 25.144C133.855 25.144 133.615 25.0853 133.391 24.968C133.167 24.8507 132.975 24.6747 132.815 24.44L130.735 21.4C130.585 21.1867 130.425 21.032 130.255 20.936C130.095 20.8293 129.903 20.776 129.679 20.776H128.639V23.64C128.639 24.088 128.511 24.4453 128.255 24.712C127.999 24.968 127.647 25.096 127.199 25.096C126.751 25.096 126.393 24.968 126.127 24.712C125.871 24.4453 125.743 24.088 125.743 23.64V15.08C125.743 14.6427 125.86 14.3067 126.095 14.072C126.329 13.8373 126.665 13.72 127.103 13.72H131.119C132.484 13.72 133.508 14.0187 134.191 14.616C134.884 15.2027 135.231 16.056 135.231 17.176C135.231 18.0293 134.996 18.7547 134.527 19.352C134.057 19.9387 133.396 20.3333 132.543 20.536C132.895 20.5893 133.199 20.7067 133.455 20.888C133.721 21.0693 133.983 21.3413 134.239 21.704L135.231 23.128ZM130.655 18.568C131.305 18.568 131.769 18.4667 132.047 18.264C132.335 18.0613 132.479 17.7307 132.479 17.272C132.479 16.8027 132.335 16.4667 132.047 16.264C131.769 16.0507 131.305 15.944 130.655 15.944H128.607V18.568H130.655ZM143.089 25.096C142.641 25.096 142.284 24.968 142.017 24.712C141.761 24.4453 141.633 24.088 141.633 23.64V15.08C141.633 14.6427 141.751 14.3067 141.985 14.072C142.22 13.8373 142.556 13.72 142.993 13.72H147.089C148.337 13.72 149.308 14.04 150.001 14.68C150.695 15.3093 151.041 16.1893 151.041 17.32C151.041 18.44 150.689 19.32 149.985 19.96C149.292 20.6 148.327 20.92 147.089 20.92H144.577V23.64C144.577 24.088 144.444 24.4453 144.177 24.712C143.911 24.968 143.548 25.096 143.089 25.096ZM146.689 18.712C147.233 18.712 147.633 18.6 147.889 18.376C148.156 18.152 148.289 17.8053 148.289 17.336C148.289 16.408 147.756 15.944 146.689 15.944H144.577V18.712H146.689ZM153.918 25.096C153.47 25.096 153.112 24.968 152.846 24.712C152.59 24.4453 152.462 24.088 152.462 23.64V15.08C152.462 14.6427 152.59 14.296 152.846 14.04C153.112 13.7733 153.47 13.64 153.918 13.64C154.376 13.64 154.739 13.7733 155.006 14.04C155.272 14.296 155.406 14.6427 155.406 15.08V23.64C155.406 24.088 155.272 24.4453 155.006 24.712C154.739 24.968 154.376 25.096 153.918 25.096ZM162.79 25.144C161.659 25.144 160.667 24.9093 159.814 24.44C158.971 23.9707 158.315 23.2987 157.846 22.424C157.387 21.5493 157.158 20.5253 157.158 19.352C157.158 18.1893 157.387 17.1707 157.846 16.296C158.315 15.4213 158.971 14.7493 159.814 14.28C160.667 13.8107 161.659 13.576 162.79 13.576C164.145 13.576 165.334 13.9333 166.358 14.648C166.539 14.776 166.667 14.9147 166.742 15.064C166.827 15.2133 166.87 15.4053 166.87 15.64C166.87 15.9707 166.774 16.2533 166.582 16.488C166.401 16.712 166.177 16.824 165.91 16.824C165.75 16.824 165.606 16.8027 165.478 16.76C165.35 16.7067 165.201 16.6267 165.03 16.52C164.657 16.296 164.305 16.136 163.974 16.04C163.643 15.944 163.302 15.896 162.95 15.896C162.001 15.896 161.291 16.184 160.822 16.76C160.363 17.3253 160.134 18.1893 160.134 19.352C160.134 20.5253 160.363 21.4 160.822 21.976C161.291 22.5413 162.001 22.824 162.95 22.824C163.27 22.824 163.579 22.776 163.878 22.68C164.177 22.5733 164.561 22.4133 165.03 22.2C165.254 22.0827 165.419 22.0027 165.526 21.96C165.633 21.9173 165.761 21.896 165.91 21.896C166.177 21.896 166.401 22.0133 166.582 22.248C166.774 22.472 166.87 22.7493 166.87 23.08C166.87 23.304 166.827 23.496 166.742 23.656C166.667 23.8053 166.539 23.944 166.358 24.072C165.334 24.7867 164.145 25.144 162.79 25.144ZM177.81 22.792C178.087 23.0587 178.226 23.368 178.226 23.72C178.226 24.072 178.092 24.3813 177.826 24.648C177.559 24.9147 177.244 25.048 176.882 25.048C176.487 25.048 176.124 24.8773 175.794 24.536L171.234 19.864V23.64C171.234 24.088 171.1 24.4453 170.834 24.712C170.567 24.968 170.204 25.096 169.746 25.096C169.298 25.096 168.94 24.968 168.674 24.712C168.418 24.4453 168.29 24.088 168.29 23.64V15.08C168.29 14.6427 168.418 14.296 168.674 14.04C168.94 13.7733 169.298 13.64 169.746 13.64C170.204 13.64 170.567 13.7733 170.834 14.04C171.1 14.296 171.234 14.6427 171.234 15.08V18.6L175.73 14.072C176.007 13.784 176.322 13.64 176.674 13.64C177.026 13.64 177.335 13.7733 177.602 14.04C177.868 14.296 178.002 14.6 178.002 14.952C178.002 15.304 177.847 15.6293 177.538 15.928L174.258 19.144L177.81 22.792ZM180.822 25C180.384 25 180.048 24.8827 179.814 24.648C179.579 24.4133 179.462 24.0773 179.462 23.64V15.08C179.462 14.6427 179.579 14.3067 179.814 14.072C180.048 13.8373 180.384 13.72 180.822 13.72H186.358C186.816 13.72 187.163 13.816 187.398 14.008C187.632 14.2 187.75 14.4773 187.75 14.84C187.75 15.608 187.286 15.992 186.358 15.992H182.326V18.136H186.038C186.966 18.136 187.43 18.5147 187.43 19.272C187.43 19.6347 187.312 19.912 187.078 20.104C186.843 20.296 186.496 20.392 186.038 20.392H182.326V22.728H186.358C187.286 22.728 187.75 23.112 187.75 23.88C187.75 24.2427 187.632 24.52 187.398 24.712C187.163 24.904 186.816 25 186.358 25H180.822ZM198.496 23.128C198.688 23.416 198.784 23.688 198.784 23.944C198.784 24.2853 198.64 24.5733 198.352 24.808C198.075 25.032 197.75 25.144 197.376 25.144C197.12 25.144 196.88 25.0853 196.656 24.968C196.432 24.8507 196.24 24.6747 196.08 24.44L194 21.4C193.851 21.1867 193.691 21.032 193.52 20.936C193.36 20.8293 193.168 20.776 192.944 20.776H191.904V23.64C191.904 24.088 191.776 24.4453 191.52 24.712C191.264 24.968 190.912 25.096 190.464 25.096C190.016 25.096 189.659 24.968 189.392 24.712C189.136 24.4453 189.008 24.088 189.008 23.64V15.08C189.008 14.6427 189.126 14.3067 189.36 14.072C189.595 13.8373 189.931 13.72 190.368 13.72H194.384C195.75 13.72 196.774 14.0187 197.456 14.616C198.15 15.2027 198.496 16.056 198.496 17.176C198.496 18.0293 198.262 18.7547 197.792 19.352C197.323 19.9387 196.662 20.3333 195.808 20.536C196.16 20.5893 196.464 20.7067 196.72 20.888C196.987 21.0693 197.248 21.3413 197.504 21.704L198.496 23.128ZM193.92 18.568C194.571 18.568 195.035 18.4667 195.312 18.264C195.6 18.0613 195.744 17.7307 195.744 17.272C195.744 16.8027 195.6 16.4667 195.312 16.264C195.035 16.0507 194.571 15.944 193.92 15.944H191.872V18.568H193.92Z" fill="white"/>
<defs>
<filter id="filter0_bdii_8376_78930" x="5.06348" y="5.06354" width="28.8729" height="28.8729" filterUnits="userSpaceOnUse" color-interpolation-filters="sRGB">
<feFlood flood-opacity="0" result="BackgroundImageFix"/>
<feGaussianBlur in="BackgroundImage" stdDeviation="0.5"/>
<feComposite in2="SourceAlpha" operator="in" result="effect1_backgroundBlur_8376_78930"/>
<feColorMatrix in="SourceAlpha" type="matrix" values="0 0 0 0 0 0 0 0 0 0 0 0 0 0 0 0 0 0 127 0" result="hardAlpha"/>
<feOffset dx="2" dy="2"/>
<feGaussianBlur stdDeviation="2"/>
<feColorMatrix type="matrix" values="0 0 0 0 0.127519 0 0 0 0 0.0487153 0 0 0 0 0.254167 0 0 0 0.15 0"/>
<feBlend mode="normal" in2="effect1_backgroundBlur_8376_78930" result="effect2_dropShadow_8376_78930"/>
<feBlend mode="normal" in="SourceGraphic" in2="effect2_dropShadow_8376_78930" result="shape"/>
<feColorMatrix in="SourceAlpha" type="matrix" values="0 0 0 0 0 0 0 0 0 0 0 0 0 0 0 0 0 0 127 0" result="hardAlpha"/>
<feOffset/>
<feGaussianBlur stdDeviation="2"/>
<feComposite in2="hardAlpha" operator="arithmetic" k2="-1" k3="1"/>
<feColorMatrix type="matrix" values="0 0 0 0 1 0 0 0 0 1 0 0 0 0 1 0 0 0 0.45 0"/>
<feBlend mode="normal" in2="shape" result="effect3_innerShadow_8376_78930"/>
<feColorMatrix in="SourceAlpha" type="matrix" values="0 0 0 0 0 0 0 0 0 0 0 0 0 0 0 0 0 0 127 0" result="hardAlpha"/>
<feOffset dy="2"/>
<feGaussianBlur stdDeviation="5"/>
<feComposite in2="hardAlpha" operator="arithmetic" k2="-1" k3="1"/>
<feColorMatrix type="matrix" values="0 0 0 0 1 0 0 0 0 1 0 0 0 0 1 0 0 0 0.4 0"/>
<feBlend mode="normal" in2="effect3_innerShadow_8376_78930" result="effect4_innerShadow_8376_78930"/>
</filter>
</defs>
</svg>
