<svg width="50" height="50" viewBox="0 0 50 50" fill="none" xmlns="http://www.w3.org/2000/svg">
<g clip-path="url(#clip0_8365_79424)">
<path d="M15.7738 0H1.48809C0.666309 0 0 0.666309 0 1.48809V33.104L17.2619 3.20547V1.48809C17.2619 0.666309 16.5956 0 15.7738 0Z" fill="#C782F2"/>
<path d="M36.1948 10.0174C36.0927 9.63614 35.8434 9.31114 35.5015 9.11378L23.1297 1.97091C22.4179 1.55968 21.5077 1.80382 21.097 2.51554L5.28879 29.8959L35.1873 12.634L36.0461 11.1465C36.2435 10.8048 36.297 10.3985 36.1948 10.0174Z" fill="#C782F2"/>
<path d="M48.029 26.8704L40.8861 14.4987C40.4752 13.787 39.5652 13.543 38.8534 13.9541L11.4733 29.7619H45.997L47.4844 28.9032C48.196 28.4922 48.4398 27.5822 48.029 26.8704Z" fill="#C782F2"/>
<path d="M48.5119 32.7381H8.82942C4.07033 32.7381 0.198456 36.6099 0.198456 41.369C0.198456 46.1281 4.07023 50 8.82942 50H48.5119C49.3337 50 50 49.3337 50 48.5119V34.2262C50 33.4044 49.3337 32.7381 48.5119 32.7381ZM8.63098 42.8571C7.7968 42.8571 7.17902 42.1753 7.14289 41.369C7.10686 40.5653 7.85266 39.881 8.63098 39.881C9.46516 39.881 10.0829 40.5628 10.1191 41.369C10.1551 42.1728 9.4094 42.8571 8.63098 42.8571Z" fill="#C782F2"/>
</g>
<defs>
<clipPath id="clip0_8365_79424">
<rect width="50" height="50" fill="white"/>
</clipPath>
</defs>
</svg>
