<?xml version="1.0" encoding="utf-8"?>
<!-- Generator: Adobe Illustrator 27.7.0, SVG Export Plug-In . SVG Version: 6.00 Build 0)  -->
<svg version="1.1" id="レイヤー_1" xmlns="http://www.w3.org/2000/svg" xmlns:xlink="http://www.w3.org/1999/xlink" x="0px"
	 y="0px" viewBox="0 0 199.1 230.7" style="enable-background:new 0 0 199.1 230.7;" xml:space="preserve">
<style type="text/css">
	.st0{fill:#008080;}
</style>
<g>
	<path class="st0" d="M3.7,106c5.1-18.1,15.3-34.4,29.6-46.9c-4.2,5.8-7.7,12.1-10.4,18.7C14.7,86,8.2,95.6,3.7,106z"/>
	<path class="st0" d="M156.9,54.5l-5.1,2.1c9,8.7,16.4,19.2,21.3,31.2c10.4,10.4,18.2,23.2,22.6,37.2
		C193.4,96.2,178.7,70.9,156.9,54.5z"/>
	<polygon class="st0" points="3.9,37.8 98.5,0 193.1,37.8 98.5,75.7 	"/>
	<rect x="195.1" y="41.5" class="st0" width="2" height="40"/>
	<polygon class="st0" points="199.1,94 193.1,94 195.1,84 197.1,84 	"/>
	<path class="st0" d="M171.4,88.9c-4.9-12-12.3-22.8-21.6-31.5L98.5,77.9L39.6,54.3c-6.2,7.3-11.3,15.6-15,24.6
		C13.2,90.2,4.8,104.6,0.7,120.7c-0.5,3.9-0.7,8-0.7,12.1c0,54,44,98,98,98c53.7,0,97.4-43.4,98-96.9
		C192.3,116.4,183.6,100.9,171.4,88.9z M74.3,102c-2.2,0-3.9-1.8-3.9-3.9s1.8-3.9,3.9-3.9s3.9,1.8,3.9,3.9S76.4,102,74.3,102z
		 M98.7,105.4c-2.5-2.9-9.4-4.9-17.7-5.1c3.3-2.4,10-4,17.7-4c7.7,0,14.4,1.6,17.7,4C108.1,100.4,101.2,102.5,98.7,105.4z
		 M122.8,102c-2.2,0-3.9-1.8-3.9-3.9s1.8-3.9,3.9-3.9s3.9,1.8,3.9,3.9S124.9,102,122.8,102z"/>
</g>
</svg>
